<svg id="noun_materials_308312" xmlns="http://www.w3.org/2000/svg" width="44.671" height="45.194" viewBox="0 0 44.671 45.194">
  <circle id="Ellipse_47" data-name="Ellipse 47" cx="1.346" cy="1.346" r="1.346" transform="translate(11.568 27.868)" fill="#fff"/>
  <path id="Path_111" data-name="Path 111" d="M51.286,5.977H21.121v15.03H6.615V51.171H36.78V36.141H51.286V5.977ZM48.937,12.4,36.78,24.562V21.007H32.308L44.885,8.43l-.1-.1h4.157V12.4ZM34.431,36.066c-2.015-.339-5.144-.721-6.27,3.07a24.806,24.806,0,0,1-3.539,6.221,20.017,20.017,0,0,0-2.142,3.465H18.761a8.071,8.071,0,0,1,1.685-4.972,7.953,7.953,0,0,1,1.771-1.492,8.061,8.061,0,0,0,4.006-6.089,11.639,11.639,0,0,0-.788-6.657,11.835,11.835,0,0,1-.84-6.258h3.439c.1.479.18.976.267,1.5.493,2.967,1.106,6.659,5.049,8.688.221.114.364.192.455.245a1.679,1.679,0,0,0,.628.411v1.867ZM15.348,38.154a10.76,10.76,0,0,1,.233-3.578,9.959,9.959,0,0,1,1.607-3.24A13.473,13.473,0,0,0,19.8,23.355h2.44a14.083,14.083,0,0,0,1,7.068,9.417,9.417,0,0,1,.672,5.485,5.78,5.78,0,0,1-3.021,4.52,9.894,9.894,0,0,0-2.269,1.956,10.4,10.4,0,0,0-2.2,6.439H13.959C15.592,43.076,15.458,40.361,15.348,38.154ZM34.431,31.46l-.009,0c-2.894-1.489-3.337-4.159-3.807-6.984-.061-.368-.126-.743-.195-1.116h4.01ZM23.47,18.928l10.6-10.6h7.6L28.988,21.007H23.47Zm7.282-10.6L23.47,15.607V8.325Zm-18.14,15.03A36.675,36.675,0,0,1,10.42,29.41c-.478,1.137-.977,2.325-1.456,3.555v-9.61ZM8.964,41.277a50.121,50.121,0,0,1,3.621-10.956,33.436,33.436,0,0,0,2.41-6.966h2.451a11.146,11.146,0,0,1-2.212,6.681,12.165,12.165,0,0,0-1.925,3.952A12.958,12.958,0,0,0,13,38.27c.1,2.112.233,4.729-1.489,10.552H8.964V41.277ZM25.12,48.823c.4-.656.963-1.457,1.426-2.119a26.4,26.4,0,0,0,3.867-6.9c.528-1.779,1.479-1.792,3.863-1.383l.156.027V48.823Zm11.66-20.94L48.937,15.725v7.914L38.783,33.793h-2v-5.91Zm5.324,5.91,6.834-6.834v6.834Z" transform="translate(-6.615 -5.977)" fill="#fff"/>
</svg>
