<svg id="noun_payment_2281176" xmlns="http://www.w3.org/2000/svg" width="46.103" height="46.104" viewBox="0 0 46.103 46.104">
  <path id="Path_87" data-name="Path 87" d="M7.179,89.016a.964.964,0,1,1,.685-.28A.964.964,0,0,1,7.179,89.016Z" transform="translate(-3.353 -46.937)" fill="#fff"/>
  <path id="Path_88" data-name="Path 88" d="M8.914,80.78H0V78.472H6.606V66.646H0V64.339H8.914Z" transform="translate(0 -34.677)" fill="#fff"/>
  <path id="Path_89" data-name="Path 89" d="M34.813,76.2H22.659V64.49l.137-.255a7.585,7.585,0,0,1,3.231-3.044,10.009,10.009,0,0,1,8.192-.215,23.986,23.986,0,0,1,2.453,1.169c.654.343,1.271.667,1.91.937a6.243,6.243,0,0,0,.824.239,3.7,3.7,0,0,1,2.83,1.806,5.429,5.429,0,0,1,.347,2.505l5.8-.086L51.4,64.21a3.152,3.152,0,0,1,4.687,4.217l-4.541,5.067Zm-9.847-2.308h9.661l15.743-2.543,4-4.459a.845.845,0,0,0-1.256-1.13l-3.687,4.083-14.287.211L35.1,67.743l5.167-.076a3.7,3.7,0,0,0-.148-1.613c-.088-.2-.857-.39-1.27-.492a7.816,7.816,0,0,1-1.17-.354c-.727-.307-1.417-.669-2.083-1.019a21.928,21.928,0,0,0-2.216-1.061,7.707,7.707,0,0,0-6.3.114,5.535,5.535,0,0,0-2.119,1.85Z" transform="translate(-12.212 -32.447)" fill="#fff"/>
  <path id="Path_90" data-name="Path 90" d="M60.494,5.15V2.7L53.145,0,38.95,7.3H26.7V24.472H54.823V19.608c.383.014.761.028,1.13.055.231.014.461.023.692.023A11.629,11.629,0,0,0,60.494,19V16.533l-.032.014a9.48,9.48,0,0,1-4.357.816c-.42-.028-.844-.046-1.282-.06-.738-.018-1.5-.014-2.305.014-1.111.037-2.3.124-3.6.258l-1.42.148a1.348,1.348,0,0,1-.369-2.669l5.376-.931a.017.017,0,0,0,.014,0,3.39,3.39,0,0,0,2.305-1.549,3.439,3.439,0,0,0-2.9-5.27h-7.93L53.3,2.513ZM51.919,9.6a1.1,1.1,0,0,1,.6.171,1.137,1.137,0,0,1,0,1.923,1.1,1.1,0,0,1-.406.152l-5.376.931a3.653,3.653,0,0,0,.622,7.252,3.346,3.346,0,0,0,.369-.018s3.753-.35,4.79-.387v2.54H29.005V9.6Z" transform="translate(-14.39)" fill="#fff"/>
  <rect id="Rectangle_484" data-name="Rectangle 484" width="2.305" height="2.305" transform="translate(25.368 14.732)" fill="#fff"/>
</svg>
