<svg id="noun_guarantee_2519048" xmlns="http://www.w3.org/2000/svg" width="40.95" height="43.227" viewBox="0 0 40.95 43.227">
  <path id="Path_91" data-name="Path 91" d="M44.858,9.573,25.9,4.06a1.517,1.517,0,0,0-.864,0h0L6.077,9.573A1.517,1.517,0,0,0,5,11.029V27.583c0,14.408,19.284,19.39,20.111,19.6a1.485,1.485,0,0,0,.758-.008c1.183-.3,20.081-5.316,20.081-19.588V11.029a1.517,1.517,0,0,0-1.092-1.456Zm-1.941,18.01c0,11.072-14.894,15.849-17.442,16.554-2.548-.705-17.442-5.46-17.442-16.554V12.174L25.475,7.093l17.442,5.073Z" transform="translate(-5 -3.997)" fill="#fff"/>
  <path id="Path_92" data-name="Path 92" d="M28.8,19.517V21.1a4.55,4.55,0,0,0,.758,9.032h2.275a1.517,1.517,0,1,1,0,3.033h-4.55a1.517,1.517,0,0,0,0,3.033H28.8v1.517a1.517,1.517,0,1,0,3.033,0V36.2a4.55,4.55,0,1,0,0-9.1H29.558a1.517,1.517,0,0,1,0-3.033h4.55a1.517,1.517,0,0,0,0-3.033H31.833V19.517a1.517,1.517,0,1,0-3.033,0Z" transform="translate(-9.842 -7.381)" fill="#fff"/>
</svg>
