<svg width="60" height="60" viewBox="0 0 60 60" fill="none" xmlns="http://www.w3.org/2000/svg">
<path fill-rule="evenodd" clip-rule="evenodd" d="M8 34H4V54H8V34ZM56 34H52V54H56V34Z" fill="#C8AA8F"/>
<path fill-rule="evenodd" clip-rule="evenodd" d="M10 26H16.4467L30.0118 39.8593L43.5768 26H50V42H10V26ZM52 44H8V52H52V44Z" fill="#DECCBC"/>
<path fill-rule="evenodd" clip-rule="evenodd" d="M24 19L18.5 8L13 19H24ZM35 19L30 8L25 19H35ZM18.5005 19.9702H13.0005L29.001 35.999L23.9711 19.9702H18.5005ZM43.0002 19.9709L35.9711 19.9703L31 36L46.9413 19.9709L43.0002 19.9709ZM25 19.9707L29.9706 19.9707H34.9411L29.9706 36.9413L25 19.9707ZM41.5 8L47 19H36L41.5 8ZM31 8H40.5L35.5 18L31 8ZM29 8H19.5L24.5 18L29 8Z" fill="#007B93"/>
</svg>
